<?xml version="1.0" standalone="no"?><svg xmlns="http://www.w3.org/2000/svg" viewBox="0 0 1440 320"><path fill="#4e73df" fill-opacity="1" d="M0,160L40,149.3C80,139,160,117,240,101.3C320,85,400,75,480,96C560,117,640,171,720,186.7C800,203,880,181,960,186.7C1040,192,1120,224,1200,245.3C1280,267,1360,277,1400,282.7L1440,288L1440,320L1400,320C1360,320,1280,320,1200,320C1120,320,1040,320,960,320C880,320,800,320,720,320C640,320,560,320,480,320C400,320,320,320,240,320C160,320,80,320,40,320L0,320Z"></path></svg>